<?xml version="1.0" standalone="no"?>
<!DOCTYPE svg PUBLIC "-//W3C//DTD SVG 20010904//EN"
 "http://www.w3.org/TR/2001/REC-SVG-20010904/DTD/svg10.dtd">
<svg version="1.0" xmlns="http://www.w3.org/2000/svg"
 width="520.000000pt" height="520.000000pt" viewBox="0 0 520.000000 520.000000"
 preserveAspectRatio="xMidYMid meet">
<metadata>
Created by potrace 1.14, written by Peter Selinger 2001-2017
</metadata>
<g transform="translate(0.000000,520.000000) scale(0.100000,-0.100000)"
fill="#000000" stroke="none">
<path d="M2447 5144 c-1 -2 -36 -5 -77 -9 -41 -3 -84 -7 -95 -9 -11 -2 -42 -7
-70 -10 -126 -17 -331 -70 -475 -123 -90 -33 -268 -112 -300 -133 -8 -5 -37
-21 -65 -35 -99 -52 -290 -185 -405 -281 -30 -25 -256 -250 -275 -274 -159
-196 -235 -309 -326 -485 -60 -114 -145 -312 -154 -355 -2 -8 -8 -28 -15 -45
-13 -35 -66 -244 -75 -295 -3 -19 -7 -46 -10 -60 -22 -116 -29 -221 -28 -420
0 -223 9 -316 48 -515 20 -102 75 -285 115 -385 33 -83 42 -105 40 -105 -1 0
27 -57 63 -127 106 -207 235 -394 387 -561 54 -60 205 -209 240 -237 14 -11
36 -29 50 -39 14 -11 41 -34 61 -51 20 -16 40 -30 44 -30 5 0 23 -11 41 -25
18 -14 37 -25 43 -25 6 0 11 -4 11 -9 0 -5 15 -16 33 -25 17 -9 46 -25 62 -36
159 -101 459 -225 665 -275 108 -26 265 -55 335 -60 22 -2 40 -4 40 -5 0 -9
358 -13 450 -5 82 8 227 28 290 42 17 3 37 7 45 8 38 5 238 62 290 82 8 3 20
7 25 9 63 16 362 156 416 195 15 10 30 19 33 19 7 0 174 110 204 135 233 186
359 311 505 500 4 6 21 28 37 50 16 22 33 45 38 50 4 6 35 55 69 110 75 124
138 251 188 375 20 52 43 111 51 130 13 32 60 204 69 252 2 11 7 29 11 40 6
21 9 35 18 103 4 22 8 51 11 65 26 131 26 634 0 720 -2 8 -7 34 -10 57 -2 23
-16 90 -31 150 -14 59 -27 115 -29 123 -2 8 -9 29 -15 45 -7 17 -14 39 -16 50
-14 76 -144 362 -223 494 -28 46 -51 86 -51 88 0 5 -163 226 -195 263 -80 94
-287 292 -364 350 -19 14 -39 30 -45 36 -17 16 -247 168 -276 182 -14 6 -32
16 -40 22 -38 26 -275 130 -360 159 -52 18 -102 35 -110 39 -8 3 -19 7 -25 8
-5 1 -12 3 -15 4 -31 11 -230 55 -295 65 -80 11 -107 15 -160 21 -61 7 -392
14 -398 8z"/>
</g>
</svg>
